<?xml version="1.0" standalone="no"?>
<!DOCTYPE svg PUBLIC "-//W3C//DTD SVG 20010904//EN"
 "http://www.w3.org/TR/2001/REC-SVG-20010904/DTD/svg10.dtd">
<svg version="1.0" xmlns="http://www.w3.org/2000/svg"
 width="1536.000000pt" height="1024.000000pt" viewBox="0 0 1536.000000 1024.000000"
 preserveAspectRatio="xMidYMid meet">

<g transform="translate(0.000000,1024.000000) scale(0.100000,-0.100000)"
fill="#000000" stroke="none">
<path d="M3414 6656 c-18 -14 -19 -29 -19 -298 0 -264 -2 -289 -23 -371 -60
-226 -169 -370 -347 -458 -137 -67 -208 -81 -470 -89 -126 -3 -216 -7 -199 -8
22 -1 33 -8 37 -21 3 -13 19 -24 46 -31 22 -6 41 -15 41 -19 0 -5 27 -12 61
-16 43 -5 59 -11 55 -20 -2 -7 0 -17 5 -22 11 -11 2 -63 -11 -63 -5 0 -12 -9
-15 -20 -6 -19 -15 -20 -133 -19 -70 1 -119 3 -109 6 19 5 23 32 5 34 -29 3
-33 4 -33 14 0 6 5 9 12 7 7 -2 13 4 13 13 0 19 14 19 43 2 12 -8 28 -13 35
-12 6 2 20 3 31 4 10 0 21 10 24 21 4 16 1 18 -22 14 -26 -5 -28 -4 -24 23 7
42 -18 63 -70 62 -58 -1 -92 -12 -93 -29 -1 -8 -2 -21 -2 -27 -1 -7 -19 -20
-39 -28 -21 -9 -44 -23 -50 -32 -11 -15 -13 -12 -13 18 0 19 5 40 11 46 8 8 8
13 0 17 -13 8 -14 55 -3 73 4 6 34 14 67 16 l60 3 -62 2 c-53 2 -64 -1 -73
-17 -15 -29 -13 -193 3 -216 13 -17 36 -18 288 -23 245 -4 287 -2 395 16 134
23 253 63 349 117 64 35 104 70 47 41 -16 -8 -33 -12 -37 -8 -5 4 -5 2 -2 -4
4 -7 0 -14 -8 -17 -8 -4 -12 -1 -9 6 6 17 -46 45 -74 41 -14 -3 -21 0 -17 6 3
5 1 10 -4 10 -19 0 -26 3 -66 28 -32 20 -51 25 -100 24 l-60 -2 55 18 c30 10
66 24 79 31 27 15 55 4 100 -37 14 -12 31 -20 38 -18 7 3 13 -1 13 -9 0 -19
76 -54 115 -53 24 0 47 18 120 92 49 50 101 112 114 136 18 33 20 41 8 31 -15
-12 -17 -11 -17 13 0 16 -9 31 -25 42 -32 21 -157 45 -169 33 -6 -6 0 -27 16
-56 21 -40 30 -47 51 -45 14 2 28 -2 32 -8 8 -12 55 -34 68 -31 12 2 -7 -29
-42 -69 -24 -29 -29 -31 -24 -12 3 13 1 22 -6 22 -6 0 -20 14 -30 31 -10 17
-23 31 -27 31 -5 0 -8 4 -6 10 1 5 -2 7 -8 3 -5 -3 -32 4 -59 16 l-49 23 39
46 c22 26 54 73 72 106 38 70 55 76 170 61 40 -6 49 -4 54 11 9 24 46 66 61
70 9 2 11 -8 8 -35 -6 -37 -6 -37 5 -8 22 63 38 184 37 270 -2 81 -2 84 -5 22
-3 -42 -8 -65 -14 -61 -5 3 -16 0 -24 -6 -17 -14 -20 -56 -5 -65 6 -4 9 -19 7
-33 -7 -51 -15 -59 -61 -59 -46 0 -105 -22 -126 -48 -7 -8 -21 -15 -31 -15
-10 0 -23 -8 -29 -17 -13 -21 -12 -16 18 92 11 39 23 102 26 140 8 95 8 354 1
440 -4 46 -2 75 5 85 9 11 13 12 17 3 10 -26 113 -7 113 21 0 12 -107 6 -126
-8z m-214 -1124 c0 -17 49 -44 119 -67 l33 -11 -38 -29 c-20 -16 -34 -24 -30
-17 3 6 -3 16 -14 22 -13 7 -19 17 -16 28 9 28 -76 53 -191 56 -18 0 -30 2
-29 4 2 2 28 18 57 37 l53 33 28 -20 c15 -10 28 -27 28 -36z m-353 -88 c-3 -3
-12 -4 -19 -1 -8 3 -5 6 6 6 11 1 17 -2 13 -5z m-58 -8 c-38 -35 -83 -54 -118
-49 -33 5 -39 2 -44 -16 -3 -11 -13 -21 -22 -21 -15 0 -15 1 -1 16 17 17 20
25 9 22 -5 0 -16 2 -26 7 -15 6 -16 10 -5 16 10 7 8 9 -7 11 -17 1 43 7 189
16 16 1 27 0 25 -2z m171 -56 c13 -8 13 -10 -2 -10 -9 0 -20 5 -23 10 -8 13 5
13 25 0z m15 -30 c4 -6 -6 -10 -22 -10 -22 0 -25 2 -13 10 19 12 27 12 35 0z
m55 -15 c0 -8 -9 -15 -20 -15 -11 0 -20 7 -20 15 0 8 9 15 20 15 11 0 20 -7
20 -15z m40 -26 c0 -5 -7 -9 -15 -9 -8 0 -15 7 -15 15 0 9 6 12 15 9 8 -4 15
-10 15 -15z m30 -14 c-14 -8 -29 -14 -35 -14 -5 0 1 6 15 14 14 8 30 14 35 14
6 0 -1 -6 -15 -14z m-152 -28 c2 -9 11 -13 25 -11 l22 5 -22 -10 c-29 -13
-166 -41 -195 -40 -14 0 -5 6 25 15 27 8 47 21 47 29 0 32 92 44 98 12z m-694
-42 c18 -14 16 -15 -31 -15 -29 0 -55 4 -58 10 -3 5 0 7 8 4 8 -3 18 -1 22 5
9 15 36 13 59 -4z"/>
<path d="M3599 6646 c10 -12 5 -17 -31 -27 -24 -7 -50 -18 -59 -26 -8 -7 -21
-13 -27 -13 -7 0 -12 -9 -12 -20 0 -14 7 -21 23 -22 45 -3 60 3 100 38 l42 35
3 -72 c3 -77 -8 -116 -39 -145 -17 -15 -19 -15 -25 0 -7 19 -25 22 -21 4 1 -7
-4 -12 -10 -10 -18 3 -16 -39 3 -66 9 -13 13 -26 9 -30 -3 -3 -10 -1 -14 6 -6
10 -10 10 -20 -2 -9 -11 -9 -16 0 -22 9 -5 7 -11 -6 -21 -17 -12 -16 -13 15
-10 30 2 58 27 30 27 -14 0 28 45 43 46 7 0 22 -9 35 -20 l23 -21 -7 175 c-3
96 -11 183 -16 193 -5 9 -18 17 -30 17 -17 0 -18 -3 -9 -14z"/>
<path d="M3851 6646 c-16 -19 -25 -415 -13 -521 l9 -80 2 68 c1 54 4 67 17 67
12 0 15 7 12 25 -6 27 14 51 32 40 5 -3 13 1 16 9 8 20 34 21 34 1 0 -8 5 -15
10 -15 6 0 10 7 10 15 0 8 5 15 10 15 6 0 10 -17 11 -37 0 -36 1 -36 10 -13 6
14 8 33 5 42 -2 11 1 18 10 18 8 0 14 9 14 19 0 14 5 18 20 14 18 -5 20 -14
20 -99 0 -73 -4 -98 -17 -113 -9 -11 -20 -18 -25 -15 -4 3 -8 1 -8 -4 0 -10
23 -22 41 -22 4 0 6 7 3 15 -4 8 -1 15 4 15 6 0 13 -10 15 -22 3 -13 3 0 1 27
-2 28 -5 142 -6 255 -1 113 -4 173 -5 134 l-4 -72 -33 -5 c-18 -3 -45 -17 -59
-31 -14 -14 -37 -26 -50 -26 -19 0 -26 -7 -30 -30 -4 -16 -20 -44 -37 -61
l-30 -32 0 101 c0 92 2 102 21 112 15 9 19 19 17 43 -2 21 -8 31 -17 29 -19
-4 -11 126 10 139 7 5 9 9 3 9 -6 0 -17 -6 -23 -14z"/>
<path d="M3975 6655 c6 -1 29 -8 53 -15 23 -8 42 -19 42 -27 0 -8 4 -12 9 -8
5 3 12 -5 14 -17 4 -20 4 -19 6 5 2 54 -13 67 -77 66 -31 0 -52 -2 -47 -4z"/>
<path d="M3933 6563 c9 -2 17 -13 17 -24 0 -10 7 -19 15 -19 9 0 15 9 15 25 0
22 -4 25 -32 24 -18 -1 -25 -3 -15 -6z"/>
<path d="M3420 6270 c0 -13 5 -20 13 -17 6 2 12 10 12 17 0 7 -6 15 -12 18 -8
2 -13 -5 -13 -18z"/>
<path d="M7250 6232 c-552 -1 -1007 -5 -1011 -10 -5 -4 -22 -121 -40 -260 -34
-275 -34 -282 22 -282 31 0 28 -4 99 122 45 80 131 168 197 202 86 43 163 56
371 63 l192 6 0 -925 c0 -1017 1 -991 -61 -1062 -33 -38 -85 -62 -175 -79
l-59 -12 0 -45 0 -45 495 0 495 0 0 45 0 45 -80 16 c-44 9 -92 21 -106 27 -50
20 -97 71 -116 125 -17 49 -18 109 -18 977 l0 925 125 3 c153 4 301 -11 378
-38 120 -42 213 -133 288 -282 30 -59 38 -68 62 -68 59 0 59 -5 26 281 -29
262 -29 263 -54 268 -14 3 -477 5 -1030 3z"/>
<path d="M3930 6210 c-13 -8 -12 -10 3 -10 9 0 17 5 17 10 0 12 -1 12 -20 0z"/>
<path d="M2765 6146 c-126 -57 -136 -237 -17 -304 76 -42 183 -20 235 50 31
41 34 117 7 172 -19 40 -71 86 -96 86 -5 0 6 -9 24 -20 17 -11 32 -23 32 -26
0 -4 -6 -1 -14 5 -10 8 -21 8 -45 0 -24 -8 -39 -9 -57 0 -32 14 -27 34 11 42
28 6 27 6 -10 7 -22 1 -53 -5 -70 -12z m9 -41 c28 -12 36 -21 36 -40 0 -16 -6
-25 -15 -25 -8 0 -15 -4 -15 -9 0 -9 -86 -8 -96 1 -7 7 12 45 34 71 18 20 12
20 56 2z m222 -81 c3 -12 4 -31 2 -42 -3 -18 -6 -19 -38 -8 -58 19 -53 76 7
72 15 -1 26 -9 29 -22z m-207 -79 c18 -2 40 -10 48 -17 15 -12 15 -11 5 9 -16
29 -15 38 1 24 8 -6 16 -8 20 -5 3 3 13 1 23 -4 15 -9 13 -12 -15 -27 -18 -9
-40 -18 -49 -20 -10 -2 -35 -11 -57 -19 -39 -15 -40 -15 -62 12 -33 39 -30 60
10 64 17 2 35 0 38 -5 3 -4 20 -9 38 -12z m114 -102 c-15 -7 -41 -12 -56 -13
-23 0 -26 2 -15 14 8 8 30 13 56 13 43 -2 43 -2 15 -14z"/>
<path d="M4656 6150 c55 -8 86 -21 124 -54 l25 -21 -24 27 c-33 37 -81 58
-133 57 l-43 -1 51 -8z"/>
<path d="M4542 6124 c-22 -15 -57 -72 -49 -80 2 -2 9 7 16 20 8 14 20 22 30
20 26 -7 47 12 33 29 -7 7 -9 17 -5 20 12 12 -2 7 -25 -9z"/>
<path d="M3990 6076 c0 -7 -9 -16 -21 -19 -25 -7 -16 -27 11 -27 20 0 33 14
37 43 2 10 -3 17 -12 17 -8 0 -15 -6 -15 -14z"/>
<path d="M4801 6060 c1 -8 5 -26 9 -40 l8 -25 1 25 c0 14 -4 32 -9 40 -9 13
-10 13 -9 0z"/>
<path d="M3538 6043 c7 -3 16 -2 19 1 4 3 -2 6 -13 5 -11 0 -14 -3 -6 -6z"/>
<path d="M3852 6020 c0 -14 2 -19 5 -12 2 6 2 18 0 25 -3 6 -5 1 -5 -13z"/>
<path d="M4777 6033 c-11 -10 -8 -20 8 -27 10 -4 15 1 15 14 0 20 -11 26 -23
13z"/>
<path d="M4101 6015 c-1 -26 21 -103 25 -90 2 6 -3 33 -10 60 -8 28 -15 41
-15 30z"/>
<path d="M4484 5978 c3 -68 38 -122 95 -145 47 -20 133 -13 169 14 33 24 72
80 72 102 0 11 -5 8 -13 -8 -8 -16 -22 -25 -45 -27 -18 -2 -42 -9 -53 -14 -24
-13 -25 -50 -1 -50 14 0 15 -2 2 -10 -23 -15 -86 -12 -100 5 -7 9 -20 15 -29
14 -45 -6 -78 40 -92 126 l-8 50 3 -57z"/>
<path d="M4613 5997 c1 -5 6 -8 10 -8 4 1 26 1 49 1 23 0 38 3 34 8 -11 10
-97 10 -93 -1z"/>
<path d="M3861 5975 c-1 -24 36 -161 49 -184 7 -12 9 -7 9 19 0 19 0 46 0 60
1 13 -3 28 -8 33 -5 5 -7 15 -5 22 3 7 1 16 -5 20 -6 3 -11 -2 -12 -12 -1 -10
-7 0 -14 22 -8 23 -14 31 -14 20z"/>
<path d="M3966 5958 c-13 -8 -13 -11 4 -28 22 -22 40 -26 40 -10 0 6 5 10 10
10 6 0 9 -3 8 -7 -2 -5 2 -9 7 -9 6 -1 9 2 8 7 -2 4 4 6 12 3 9 -4 15 0 15 10
0 9 0 19 0 23 0 11 -86 11 -104 1z"/>
<path d="M4130 5907 c0 -4 7 -24 15 -44 17 -41 18 -46 7 -39 -12 7 -52 -31
-52 -50 0 -8 -7 -17 -15 -20 -17 -7 -21 -34 -5 -34 6 0 10 5 10 12 0 6 9 1 20
-12 17 -19 21 -20 26 -7 3 9 14 19 25 22 10 4 19 14 19 23 0 12 9 7 31 -18 31
-35 31 -35 9 -3 -11 18 -36 65 -55 105 -19 40 -34 69 -35 65z"/>
<path d="M3584 5836 c-3 -14 -12 -26 -20 -26 -8 0 -14 -5 -14 -12 0 -6 -3 -8
-7 -5 -3 4 -16 -8 -29 -26 -16 -23 -19 -36 -12 -45 8 -10 14 -10 25 0 13 10
12 6 -1 -27 -13 -34 -13 -37 -1 -21 19 25 78 177 71 183 -3 3 -8 -6 -12 -21z"/>
<path d="M3920 5767 c0 -16 64 -134 106 -193 54 -76 192 -207 211 -200 8 3 12
2 8 -3 -8 -14 130 -86 230 -120 152 -51 282 -64 577 -59 192 3 260 7 272 17
21 17 24 215 4 228 -7 4 -150 8 -318 8 -288 0 -310 1 -390 23 -119 33 -231 94
-315 172 -38 36 -63 57 -55 46 13 -17 11 -21 -23 -52 -20 -19 -37 -39 -37 -44
0 -5 -6 -7 -12 -5 -7 3 -32 -13 -55 -35 l-43 -39 -40 56 -40 56 20 27 c11 16
20 38 20 49 0 12 5 21 10 21 6 0 10 4 10 9 0 12 -81 -5 -90 -19 -6 -9 -14 -1
-29 26 -11 21 -20 35 -21 31z m445 -189 c45 -32 45 -32 23 -44 -13 -7 -26 -10
-30 -8 -4 3 -25 -7 -47 -21 -23 -14 -45 -25 -51 -25 -5 0 -10 -5 -10 -10 0 -6
-13 -18 -30 -29 -16 -10 -27 -21 -22 -26 4 -4 -2 -3 -13 3 -11 6 -38 30 -60
53 -22 24 -33 38 -25 33 8 -6 21 -9 28 -8 6 1 17 2 22 3 6 0 20 11 33 24 12
12 24 22 27 23 20 3 40 18 40 30 0 8 5 14 11 14 5 0 7 -6 3 -12 -4 -7 4 -3 17
10 13 12 27 22 31 22 4 0 28 -14 53 -32z m-185 -48 c0 -5 -2 -10 -4 -10 -3 0
-8 5 -11 10 -3 6 -1 10 4 10 6 0 11 -4 11 -10z m400 -67 c3 -2 -7 -2 -23 2
-17 5 -27 3 -27 -4 0 -6 -14 -11 -30 -11 -17 0 -41 -7 -54 -15 -16 -10 -33
-14 -51 -9 -17 4 -23 9 -15 14 7 4 21 5 31 3 14 -4 19 0 19 16 0 12 5 30 12
40 11 18 13 17 72 -6 34 -14 63 -27 66 -30z m80 -24 c-12 -9 -12 -10 4 -5 25
8 210 -5 196 -14 -7 -4 -11 -11 -9 -16 6 -24 -196 -27 -211 -4 -4 7 -13 9 -19
6 -6 -4 -11 -2 -11 4 0 18 24 39 45 39 17 1 18 -1 5 -10z m668 -39 l4 -35 -24
23 c-14 12 -29 22 -35 22 -6 0 -14 7 -17 16 -5 12 1 15 32 12 34 -3 37 -5 40
-38z m-115 18 c12 -6 38 -28 57 -50 20 -21 42 -38 49 -38 8 0 11 -17 9 -57
l-3 -58 -60 -1 c-36 -1 -44 0 -20 3 22 2 44 8 48 12 18 18 -116 107 -168 113
-43 4 -47 -31 -5 -55 35 -21 31 -37 -8 -37 -33 0 -90 -35 -70 -43 7 -3 -52 -5
-132 -6 -97 0 -138 3 -122 9 12 5 25 16 28 25 4 8 16 15 28 14 57 -5 107 1
100 13 -5 8 -2 9 9 5 11 -4 17 -1 17 9 0 12 -7 14 -32 9 -31 -7 -32 -6 -13 9
11 8 30 16 42 16 12 0 25 5 28 11 4 5 12 8 18 6 40 -15 63 49 30 85 -15 17
-13 18 66 18 45 0 92 -5 104 -12z m-813 -8 c0 -5 -4 -10 -10 -10 -5 0 -10 5
-10 10 0 6 5 10 10 10 6 0 10 -4 10 -10z m-49 -11 c13 -6 17 -15 12 -22 -5 -7
-8 -24 -7 -39 l1 -27 -48 25 c-55 27 -59 36 -27 58 26 19 42 20 69 5z m253 -5
c12 -12 16 -12 16 -2 0 10 3 10 9 -2 14 -20 5 -28 -24 -22 -16 3 -25 11 -25
23 0 23 4 24 24 3z m96 -34 c0 -5 7 -10 16 -10 14 0 14 -2 0 -15 -14 -14 -17
-14 -36 2 -25 22 -26 33 0 33 11 0 20 -4 20 -10z m-132 -55 c20 -22 49 -31 90
-26 14 2 16 -27 2 -49 -8 -12 -22 -11 -104 9 -53 12 -98 27 -101 31 -3 5 5 16
17 25 20 13 21 17 8 25 -11 7 -4 10 26 10 31 0 46 -6 62 -25z"/>
<path d="M3355 5600 c4 -6 11 -8 16 -5 14 9 11 15 -7 15 -8 0 -12 -5 -9 -10z"/>
<path d="M10989 5546 c-125 -36 -243 -134 -334 -280 l-50 -79 -5 159 c-3 88
-9 165 -13 172 -5 6 -23 12 -42 12 -33 0 -463 -134 -478 -149 -5 -5 -7 -25 -5
-46 3 -37 4 -38 63 -55 74 -20 97 -34 121 -74 18 -29 19 -61 19 -541 l0 -510
-25 -50 c-28 -55 -63 -80 -138 -99 l-47 -12 0 -45 0 -44 415 0 415 0 9 28 c15
43 -2 60 -80 78 -112 25 -156 57 -191 134 -15 35 -18 82 -21 400 -4 384 0 439
44 530 53 113 133 174 237 182 54 5 74 1 157 -31 107 -42 140 -42 190 1 72 61
106 194 63 251 -48 65 -199 99 -304 68z"/>
<path d="M8925 5524 c-295 -66 -528 -299 -613 -613 -35 -130 -36 -344 -3 -465
60 -222 200 -399 391 -496 173 -87 415 -111 616 -60 83 21 196 76 269 130 70
51 175 167 208 229 l28 51 -27 25 c-33 31 -45 31 -70 3 -35 -39 -166 -139
-216 -164 -118 -60 -300 -81 -423 -49 -182 48 -312 158 -395 337 -33 70 -63
185 -50 193 11 7 510 104 795 155 298 53 356 66 367 82 21 32 -22 201 -80 313
-46 88 -150 198 -233 248 -110 65 -203 89 -359 93 -97 3 -155 -1 -205 -12z
m287 -167 c76 -37 136 -99 180 -184 38 -74 76 -209 62 -223 -5 -4 -74 -20
-154 -34 -188 -34 -617 -114 -652 -122 l-28 -6 0 72 c0 192 91 387 219 469 75
49 123 61 226 58 76 -2 99 -7 147 -30z"/>
<path d="M12501 5520 c-131 -35 -252 -102 -383 -214 l-68 -57 0 128 c0 141 -4
153 -54 153 -33 0 -464 -134 -479 -149 -5 -5 -7 -25 -5 -46 3 -38 4 -38 68
-56 91 -25 126 -64 135 -150 3 -35 5 -269 3 -519 -3 -443 -4 -456 -25 -502
-23 -51 -61 -81 -128 -100 -22 -6 -46 -16 -52 -21 -17 -13 -16 -62 1 -76 9 -8
118 -11 382 -9 l369 3 3 33 c4 42 -8 57 -61 71 -67 17 -106 47 -130 99 -21 46
-22 58 -25 514 l-3 467 37 40 c50 57 163 130 237 154 45 15 90 20 162 21 125
0 184 -22 249 -95 81 -90 80 -86 84 -582 3 -485 0 -516 -56 -570 -16 -16 -56
-37 -88 -47 l-59 -18 0 -43 0 -44 375 0 375 0 3 24 c7 47 -6 68 -45 76 -89 16
-142 70 -159 159 -3 21 -7 248 -8 505 -1 455 -2 468 -24 541 -51 164 -162 274
-319 315 -79 21 -221 18 -312 -5z"/>
<path d="M2222 5021 c-40 -4 -66 -12 -72 -21 -16 -25 -12 -206 4 -219 9 -8 44
-11 98 -8 l83 3 -87 2 c-49 1 -88 5 -88 10 0 4 9 13 20 20 11 7 20 19 20 27 0
16 -34 38 -44 28 -3 -3 -6 17 -6 45 0 41 3 50 14 46 8 -3 22 -1 32 4 14 8 13
10 -10 16 -45 11 -24 31 35 34 47 2 59 -1 83 -23 27 -25 79 -34 91 -15 3 6 17
10 31 10 22 0 28 8 22 28 -2 4 22 10 52 13 34 3 3 6 -80 6 -74 0 -163 -3 -198
-6z"/>
<path d="M2653 5023 l57 -4 -15 -28 c-15 -30 -59 -51 -105 -51 -14 0 -34 -6
-44 -13 -16 -12 -15 -14 5 -35 12 -14 19 -31 16 -43 -4 -13 0 -19 11 -20 10 0
31 -2 47 -5 82 -12 95 -9 95 21 0 27 32 47 58 37 7 -2 24 1 37 8 20 11 27 11
42 -1 10 -7 15 -10 11 -5 -4 5 -1 18 7 28 7 11 11 26 8 34 -3 8 3 17 12 20 13
5 14 9 3 16 -8 5 2 7 27 4 22 -3 6 4 -35 14 -45 12 -118 22 -185 24 -60 2 -84
2 -52 -1z"/>
<path d="M4751 5026 c4 -4 100 -7 215 -7 115 1 204 -3 197 -7 -19 -12 -12 -52
9 -52 10 0 18 -5 18 -11 0 -6 -23 -9 -62 -8 -63 3 -63 3 -66 -26 -3 -19 2 -33
14 -42 10 -7 14 -16 9 -20 -4 -5 -10 -2 -12 4 -4 10 -9 10 -26 1 -24 -13 -56
-12 -71 3 -6 5 -16 9 -23 9 -11 0 -11 -5 -3 -20 7 -14 7 -20 0 -21 -5 -1 -16
-2 -22 -3 -7 0 -13 -8 -13 -16 0 -11 -16 -16 -65 -21 -36 -3 15 -5 115 -5 99
0 161 1 137 3 -43 4 -43 4 -23 22 11 10 17 22 13 26 -4 4 11 5 34 2 22 -4 44
-3 48 1 4 3 13 7 19 7 7 0 13 4 14 8 5 24 57 57 89 57 l34 0 0 -59 c0 -33 -4
-63 -10 -66 -5 -3 -7 0 -4 8 3 10 -7 17 -34 24 -37 10 -38 9 -34 -13 4 -21 0
-23 -49 -27 -36 -2 -24 -4 37 -5 76 -2 93 1 98 14 3 9 6 60 6 114 0 77 -3 100
-16 111 -12 10 -85 14 -297 17 -155 2 -279 1 -276 -2z m577 -51 c3 -24 1 -28
-9 -17 -7 6 -21 12 -31 12 -9 0 -22 9 -28 21 -11 19 -9 20 27 17 34 -3 38 -6
41 -33z m-281 -181 c-3 -3 -12 -4 -19 -1 -8 3 -5 6 6 6 11 1 17 -2 13 -5z"/>
<path d="M4625 5008 c-129 -24 -269 -78 -372 -144 -56 -36 -213 -180 -213
-195 0 -4 35 27 78 70 70 70 119 100 105 64 -3 -7 -9 -10 -14 -7 -14 8 -10
-25 7 -62 9 -18 26 -36 37 -40 12 -4 39 -18 60 -32 l38 -25 -35 -36 c-33 -33
-36 -34 -54 -18 -10 9 -31 17 -46 17 -15 0 -34 6 -42 14 -7 8 -23 12 -34 9
-11 -3 -20 0 -20 6 0 6 -9 20 -19 30 -17 17 -22 17 -39 5 -11 -7 -22 -11 -24
-8 -8 8 -64 -83 -104 -170 -47 -103 -81 -241 -95 -385 -12 -129 -4 -493 12
-523 8 -16 24 -18 119 -18 67 0 111 4 115 11 4 6 8 142 9 302 2 284 3 295 29
386 40 136 88 222 177 312 108 109 231 167 405 195 55 8 68 12 40 13 -35 0
-64 -4 -153 -24 -14 -4 -21 -2 -18 4 11 18 -95 68 -131 62 -7 -1 -13 5 -13 14
0 8 -8 15 -18 15 -9 0 -25 11 -36 24 -11 16 -24 23 -34 19 -42 -15 8 17 56 36
66 26 72 26 72 -2 0 -32 52 -80 88 -81 20 -1 28 -5 24 -15 -4 -10 2 -12 26 -6
24 5 32 3 32 -8 0 -9 15 -16 46 -21 49 -6 94 1 94 15 0 5 8 9 18 9 28 0 58 36
44 53 -14 16 3 37 29 37 22 0 18 29 -5 42 -13 7 -14 13 -6 23 8 9 3 15 -21 25
-27 12 -37 10 -93 -13 -36 -15 -73 -23 -85 -20 -15 4 -21 1 -19 -8 2 -9 -7
-14 -27 -14 -16 0 -40 -6 -53 -13 -20 -12 -29 -11 -60 4 l-37 17 40 14 c22 7
53 11 70 8 20 -4 26 -3 16 3 -9 7 8 13 60 22 41 7 79 14 84 15 23 7 -64 2
-110 -7z m11 -94 c-5 -12 -2 -15 10 -10 17 6 64 -17 64 -32 0 -11 -52 -32 -81
-32 -26 0 -27 2 -19 35 4 19 6 35 3 35 -2 0 -1 5 2 10 10 16 28 11 21 -6z
m-322 -38 c-3 -7 2 -16 10 -19 9 -4 16 -18 16 -32 0 -14 6 -25 13 -25 7 0 28
-8 47 -19 35 -18 42 -21 58 -21 5 0 18 -8 30 -18 21 -18 21 -18 -34 -45 -31
-15 -53 -24 -50 -19 2 4 -10 16 -28 26 -18 10 -51 41 -72 69 -43 58 -54 68
-66 61 -4 -3 -8 -3 -8 0 0 4 80 56 87 56 1 0 0 -6 -3 -14z m-275 -243 c-3 -21
2 -34 14 -32 41 6 73 -14 92 -57 18 -40 32 -50 67 -45 4 0 -10 -30 -30 -68
l-36 -68 -33 18 c-18 10 -33 14 -33 9 0 -5 -11 -9 -25 -8 -26 2 -30 23 -4 23
9 0 15 13 17 34 3 27 0 33 -12 28 -10 -4 -16 -1 -16 8 0 19 -9 19 -55 -1 -20
-8 -39 -13 -42 -10 -7 6 41 109 67 147 21 28 31 36 29 22z m-23 -278 c-1 -19
-5 -35 -9 -35 -14 0 -57 -48 -57 -63 0 -8 11 -18 25 -21 14 -4 25 -14 25 -22
0 -12 5 -14 18 -9 9 5 28 9 41 10 13 1 31 10 39 21 11 14 13 15 9 3 -3 -9 -9
-38 -13 -65 -4 -27 -12 -53 -18 -57 -7 -6 -7 -10 -1 -13 6 -2 9 -24 7 -48 -4
-44 -4 -44 -23 -25 -11 11 -24 17 -29 14 -6 -4 -10 11 -10 34 0 22 5 41 12 43
8 3 5 9 -8 16 -20 11 -22 8 -28 -29 -4 -22 -4 -44 -1 -50 3 -5 1 -17 -4 -26
-9 -16 -10 -16 -11 5 0 55 -68 -29 -85 -107 -3 -16 -16 -33 -30 -39 l-25 -12
0 63 c0 89 12 204 19 184 4 -10 7 15 7 55 1 40 8 98 17 129 l17 56 52 10 c29
6 56 11 59 12 3 0 5 -15 5 -34z m60 -643 c-3 -3 -39 -5 -81 -5 l-75 -1 -6 -33
c-6 -30 -35 -63 -56 -63 -5 0 -8 32 -8 71 0 56 4 77 21 100 11 16 27 29 35 29
8 0 14 6 14 13 0 17 58 41 94 38 26 -2 28 0 22 23 -5 22 -2 28 16 35 23 8 23
8 26 -97 1 -57 0 -107 -2 -110z m14 -83 c0 -11 -4 -18 -10 -14 -5 3 -7 12 -3
20 7 21 13 19 13 -6z m-74 -44 c28 -15 28 -15 -36 -14 l-65 0 35 13 c19 8 36
14 36 15 1 0 15 -6 30 -14z"/>
<path d="M3950 4127 c0 -14 7 -28 16 -31 12 -5 15 0 12 21 -4 35 -28 43 -28
10z"/>
<path d="M3043 4949 c75 -30 78 -32 55 -44 -12 -6 -30 -9 -38 -6 -14 6 -27 6
-72 2 -9 0 -23 -13 -30 -28 -11 -23 -20 -28 -51 -28 -31 0 -37 -3 -33 -17 2
-10 0 -18 -5 -18 -5 0 -9 7 -9 15 0 8 -5 15 -10 15 -6 0 -8 -11 -4 -25 5 -19
2 -25 -11 -25 -9 0 -13 5 -10 10 3 6 1 10 -4 10 -6 0 -11 -7 -11 -16 0 -15
-10 -16 -77 -10 -42 3 -103 7 -137 7 -34 1 -53 3 -43 6 9 2 17 9 17 14 0 9
-19 13 -58 9 -29 -2 -111 29 -136 52 -21 20 -42 23 -50 9 -8 -12 15 -29 48
-35 31 -6 48 -16 26 -16 -24 0 23 -29 50 -31 14 -1 0 -5 -30 -9 -38 -5 -5 -7
105 -8 175 -2 318 -20 408 -51 147 -51 273 -149 341 -264 21 -37 42 -64 47
-61 5 3 6 -1 3 -9 -2 -7 4 -34 15 -60 47 -108 56 -185 56 -477 0 -151 4 -281
8 -287 6 -9 41 -13 117 -13 94 0 111 2 118 18 16 30 23 362 12 508 -14 168
-45 296 -103 417 -51 106 -132 221 -149 211 -6 -4 -8 -3 -5 3 10 15 -87 102
-173 155 -73 45 -215 108 -242 108 -7 -1 22 -15 65 -31z m232 -124 c33 -24 70
-54 83 -67 l22 -24 -37 -21 c-21 -11 -53 -23 -71 -26 -18 -4 -48 -22 -68 -42
l-35 -35 -67 47 c-37 25 -77 55 -89 66 -13 11 -26 17 -30 14 -3 -4 0 -7 7 -7
7 0 11 -2 8 -5 -3 -3 -12 -3 -21 1 -14 5 -14 7 1 24 8 11 19 17 24 14 5 -3 20
1 33 10 13 9 36 16 50 16 17 0 25 5 25 18 0 9 10 22 23 27 12 6 26 20 32 32
11 26 19 22 110 -42z m205 -215 c0 -12 -82 -60 -103 -60 -23 0 -85 -67 -79
-85 4 -12 -1 -7 -52 57 -20 26 -31 45 -23 43 7 -3 22 3 32 15 10 11 28 20 41
20 28 0 90 52 100 83 6 20 9 19 45 -22 22 -24 39 -47 39 -51z m80 -158 c12
-30 18 -57 15 -60 -3 -3 -5 0 -5 6 0 16 -31 15 -55 -2 -11 -7 -35 -12 -52 -11
-18 2 -30 -1 -27 -7 3 -5 -2 -20 -11 -35 -9 -14 -13 -28 -8 -32 5 -3 19 -21
32 -39 19 -27 20 -33 7 -38 -26 -10 -29 -42 -6 -66 17 -18 21 -34 19 -72 -2
-37 1 -50 14 -57 11 -7 17 -6 17 1 0 5 -4 10 -10 10 -5 0 -10 4 -10 8 0 5 7 9
15 9 8 0 15 -6 15 -14 0 -7 5 -13 10 -13 6 0 9 6 8 13 -2 6 3 12 11 12 8 0 16
-12 18 -26 3 -21 -3 -28 -29 -40 -24 -10 -32 -19 -30 -34 5 -26 13 -34 19 -17
9 24 19 12 15 -18 -2 -17 -10 -30 -18 -30 -8 0 -14 -9 -14 -20 0 -11 -7 -20
-15 -20 -8 0 -15 -4 -15 -10 0 -5 19 -10 43 -10 37 0 44 3 55 30 15 32 46 55
62 45 6 -3 10 -28 10 -54 0 -35 -5 -53 -20 -66 -11 -10 -20 -28 -20 -39 0 -34
-15 -49 -44 -44 -14 3 -26 1 -26 -3 0 -5 -6 -9 -13 -9 -7 0 -17 -8 -24 -19 -9
-15 -7 -23 14 -45 13 -15 38 -29 54 -33 16 -3 29 -10 29 -15 0 -6 9 -8 20 -5
11 3 18 1 14 -4 -3 -5 -35 -9 -72 -8 -37 0 -62 3 -55 5 20 9 2 34 -23 34 -13
0 -24 4 -24 10 0 5 -12 13 -26 16 -25 6 -26 9 -20 52 3 25 6 60 6 78 0 23 5
34 14 34 10 0 14 11 13 35 -1 41 -12 47 -15 8 -4 -50 -12 -37 -12 20 0 36 4
57 11 57 15 0 38 31 39 51 0 21 -31 34 -42 17 -4 -8 -8 3 -7 27 0 38 1 39 11
15 10 -23 11 -23 15 -5 2 11 9 30 15 42 14 29 3 41 -22 25 -17 -10 -20 -9 -24
11 -25 140 -39 203 -56 241 l-19 46 27 2 c15 0 34 2 42 2 8 1 14 9 12 19 -2 9
2 17 8 17 5 0 10 -7 10 -15 0 -8 5 -15 11 -15 5 0 7 5 4 10 -3 6 0 10 7 10 9
0 9 3 -2 10 -13 9 -13 12 0 23 8 6 26 29 40 49 22 34 26 36 37 21 7 -9 22 -41
33 -71z m33 -92 c3 -11 1 -18 -4 -14 -5 3 -9 12 -9 20 0 20 7 17 13 -6z m37
-176 c7 -49 10 -99 7 -109 -3 -13 -5 -9 -6 12 -1 26 -4 30 -21 26 -21 -5 -28
-23 -10 -23 6 0 8 -10 5 -23 -4 -13 -7 -31 -9 -40 -6 -41 -17 -26 -15 20 2 31
-3 58 -10 67 -17 20 -35 21 -27 1 4 -11 -2 -15 -23 -15 -26 0 -28 3 -27 33 2
24 6 31 19 29 9 -2 17 2 17 7 0 6 6 8 14 5 8 -3 19 3 24 13 8 14 5 25 -13 47
l-23 29 21 17 c54 42 59 36 77 -96z"/>
<path d="M3235 4789 c-4 -6 -5 -13 -2 -16 7 -7 27 6 27 18 0 12 -17 12 -25 -2z"/>
<path d="M3155 4751 c-19 -8 -19 -8 2 -19 30 -17 40 -15 46 8 6 22 -11 25 -48
11z"/>
<path d="M3377 4303 c3 -7 9 -10 14 -7 14 8 11 21 -5 21 -8 0 -12 -6 -9 -14z"/>
<path d="M2246 4941 c-7 -11 3 -43 16 -52 5 -3 22 -4 38 -1 23 3 30 9 30 27 0
15 -8 25 -22 29 -33 8 -56 7 -62 -3z"/>
<path d="M4888 4843 c7 -3 16 -2 19 1 4 3 -2 6 -13 5 -11 0 -14 -3 -6 -6z"/>
<path d="M2775 4390 c-68 -21 -124 -116 -110 -188 27 -144 214 -194 308 -83
43 51 37 59 -35 49 -33 -4 -66 -13 -73 -18 -7 -5 -15 -7 -18 -3 -4 3 -7 1 -7
-5 0 -5 -3 -17 -6 -26 -4 -11 0 -16 14 -16 11 0 22 -7 26 -15 4 -11 -2 -15
-28 -15 -26 0 -33 4 -32 18 1 12 -8 18 -33 20 -21 2 -31 0 -26 -7 3 -6 2 -11
-3 -11 -15 0 -72 68 -72 85 0 20 37 28 85 18 29 -7 54 -4 94 9 30 10 60 18 68
18 8 0 27 7 43 15 29 15 29 15 33 -18 4 -30 4 -29 5 7 3 53 -29 115 -73 145
-39 27 -111 36 -160 21z m80 -9 c-19 -8 -19 -8 3 -15 13 -4 34 -5 46 -2 17 4
30 -2 50 -23 16 -16 26 -34 22 -39 -10 -17 -60 -21 -122 -10 -60 11 -63 10
-118 -22 -32 -17 -59 -30 -62 -27 -7 7 24 78 43 99 12 14 19 15 29 7 18 -15
48 -3 41 15 -7 18 7 24 53 25 27 0 31 -2 15 -8z"/>
<path d="M4645 4393 c44 -6 86 -24 79 -35 -3 -5 0 -9 7 -7 29 3 39 -2 55 -32
8 -17 11 -28 6 -25 -6 4 -13 2 -17 -4 -9 -14 -75 -41 -85 -35 -5 3 -11 1 -14
-4 -6 -10 -64 -25 -86 -22 -11 2 -10 -1 4 -11 12 -9 39 -13 78 -12 48 2 63 7
75 23 8 12 23 21 34 21 10 0 19 6 20 13 0 6 4 3 9 -8 8 -18 9 -18 9 6 2 64
-94 141 -172 138 l-32 -2 30 -4z"/>
<path d="M4553 4370 c-18 -10 -39 -33 -48 -49 -16 -32 -21 -55 -6 -32 5 8 24
19 43 25 30 10 49 44 21 39 -22 -5 -14 6 15 21 15 8 23 15 17 16 -5 0 -24 -9
-42 -20z"/>
<path d="M4483 4230 c0 -25 2 -35 4 -22 2 12 2 32 0 45 -2 12 -4 2 -4 -23z"/>
<path d="M4805 4181 c-3 -12 -11 -21 -16 -21 -19 0 -80 -53 -75 -66 6 -16 -15
-24 -64 -24 -51 0 -77 10 -58 22 17 11 -16 38 -49 38 -14 0 -28 10 -37 28 -8
15 -15 23 -16 17 0 -21 41 -76 72 -95 40 -24 126 -27 167 -5 47 24 105 105 88
122 -3 2 -8 -5 -12 -16z"/>
</g>
</svg>
